<?xml version="1.0" standalone="no"?>
<!DOCTYPE svg PUBLIC "-//W3C//DTD SVG 20010904//EN"
 "http://www.w3.org/TR/2001/REC-SVG-20010904/DTD/svg10.dtd">
<svg version="1.0" xmlns="http://www.w3.org/2000/svg"
 width="2000.000000pt" height="2000.000000pt" viewBox="0 0 2000.000000 2000.000000"
 preserveAspectRatio="xMidYMid meet">

<g transform="translate(0.000000,2000.000000) scale(0.100000,-0.100000)"
fill="#240f04" stroke="none">

<path d="M0 19400 l0 -601 36 -32 c125 -110 307 -190 493 -217 124 -19 321 -8
451 25 320 79 609 280 786 545 106 161 163 310 185 488 13 112 4 239 -26 340
l-16 52 -183 0 -183 0 -49 -107 c-58 -126 -127 -237 -174 -276 -81 -69 -185
-106 -425 -152 -320 -62 -377 -89 -672 -321 -70 -55 -133 -104 -139 -107 -24
-14 212 329 268 388 113 121 193 156 418 181 226 26 289 45 395 124 44 32 234
197 290 251 19 19 7 19 -718 19 l-737 0 0 -600z"/>
<path d="M5654 19928 c11 -110 34 -220 72 -345 181 -598 668 -1101 1229 -1272
499 -151 970 -48 1306 288 177 177 286 383 351 660 29 126 36 427 14 579 -9
62 -21 124 -26 137 l-10 25 -671 0 -671 0 7 -32 c20 -95 79 -331 97 -383 64
-186 171 -347 423 -635 147 -168 197 -230 189 -230 -4 0 -15 6 -23 14 -9 8
-114 73 -235 145 -252 152 -338 214 -429 310 -122 129 -166 241 -212 540 -15
95 -32 193 -38 219 l-12 47 -684 3 -684 2 7 -72z"/>
<path d="M9942 19973 c-74 -107 -141 -268 -166 -403 -80 -418 126 -800 514
-957 141 -56 202 -67 400 -67 176 0 191 2 303 32 467 124 831 480 939 919 24
101 30 307 10 381 -7 23 -17 60 -22 82 l-11 40 -185 -2 -185 -3 -55 -120
c-133 -285 -206 -336 -590 -410 -321 -62 -390 -95 -669 -320 -66 -53 -127
-101 -136 -105 -9 -5 37 71 102 169 128 192 217 290 307 335 59 29 155 51 297
66 193 20 271 45 360 113 34 26 102 85 290 250 l30 26 -757 1 -757 0 -19 -27z"/>
<path d="M15654 19923 c24 -266 144 -593 307 -843 144 -220 332 -410 549 -555
536 -358 1164 -377 1611 -49 274 202 446 499 505 876 13 79 15 144 11 288 -4
162 -24 321 -43 351 -3 5 -288 9 -675 9 l-670 0 7 -37 c3 -21 24 -108 45 -193
87 -350 130 -420 567 -930 57 -66 98 -120 93 -120 -5 0 -13 4 -16 10 -3 5
-111 73 -241 150 -251 151 -345 220 -436 319 -116 125 -153 221 -204 534 -20
122 -40 232 -45 245 l-9 22 -681 0 -682 0 7 -77z"/>
<path d="M19929 19954 c-45 -65 -103 -195 -135 -299 -25 -82 -28 -104 -28
-255 -1 -134 3 -177 18 -230 37 -127 98 -239 185 -340 l30 -35 1 603 c0 590 0
602 -20 602 -11 0 -31 -18 -51 -46z"/>
<path d="M3330 18629 c-506 -45 -1000 -368 -1305 -854 -301 -479 -382 -1056
-214 -1531 109 -310 335 -571 614 -712 88 -44 231 -89 341 -108 129 -22 390
-15 515 15 513 119 966 487 1218 991 297 595 273 1261 -61 1712 -257 347 -666
526 -1108 487z m489 -881 c3 -368 -76 -493 -529 -840 -335 -256 -414 -363
-635 -853 -83 -184 -128 -272 -121 -235 9 45 25 182 46 375 25 225 56 361 108
470 74 152 137 212 425 405 315 210 330 233 571 851 35 92 77 187 93 210 l28
44 6 -140 c4 -77 7 -206 8 -287z"/>
<path d="M13335 18629 c-246 -20 -516 -117 -744 -267 -322 -212 -593 -552
-739 -927 -274 -708 -99 -1454 428 -1814 151 -104 305 -166 484 -197 124 -22
394 -14 517 15 520 121 978 499 1230 1016 212 436 252 905 113 1324 -187 562
-697 899 -1289 850z m481 -954 c-7 -200 -34 -280 -144 -424 -67 -88 -149 -161
-382 -342 -338 -263 -422 -375 -638 -859 -77 -172 -126 -268 -118 -230 3 14
15 111 26 215 44 404 68 515 143 660 60 117 152 203 368 346 336 223 369 265
534 684 138 351 145 368 173 410 l27 40 8 -180 c4 -99 6 -243 3 -320z"/>
<path d="M7935 17484 c-207 -46 -387 -160 -511 -324 -45 -59 -112 -212 -136
-306 -27 -113 -30 -328 -4 -444 66 -298 254 -589 502 -775 145 -109 342 -197
529 -236 102 -21 306 -16 410 10 310 79 529 296 616 611 19 71 23 110 23 230
0 83 -5 171 -13 205 -58 267 -169 472 -360 665 -170 171 -359 283 -581 346
-122 34 -362 43 -475 18z m-90 -498 c83 -19 175 -44 205 -55 150 -58 224 -156
364 -484 103 -238 159 -307 419 -518 197 -159 190 -150 92 -110 -27 11 -95 37
-150 57 -233 85 -360 173 -423 292 -17 31 -51 118 -77 192 -26 74 -60 161 -77
192 -39 74 -133 162 -288 273 -69 49 -153 111 -187 138 -62 48 -80 74 -45 63
9 -3 85 -21 167 -40z"/>
<path d="M17941 17485 c-186 -42 -318 -113 -434 -232 -77 -79 -115 -133 -160
-229 -292 -624 197 -1462 945 -1620 125 -26 318 -24 433 5 414 105 671 472
641 914 -36 521 -435 998 -956 1142 -120 34 -364 44 -469 20z m-111 -496 c164
-35 219 -53 287 -91 94 -53 160 -144 247 -343 158 -360 193 -405 498 -650 76
-60 136 -110 135 -112 -2 -1 -36 11 -77 27 -41 16 -129 50 -195 75 -279 107
-360 191 -455 475 -74 223 -122 283 -361 454 -168 122 -249 186 -249 198 0 6
8 7 17 3 10 -3 78 -19 153 -36z"/>
<path d="M430 16403 c-14 -3 -57 -20 -96 -38 -193 -93 -307 -331 -274 -573 23
-170 90 -311 205 -431 319 -332 783 -249 902 161 102 352 -129 766 -486 872
-51 15 -188 20 -251 9z m118 -307 c77 -54 102 -115 127 -307 8 -63 22 -135 30
-160 18 -52 78 -156 138 -237 21 -30 37 -55 35 -57 -2 -2 -39 23 -83 56 -170
127 -192 164 -206 346 -13 157 -25 187 -143 342 -47 63 -86 118 -86 122 0 10
127 -61 188 -105z"/>
<path d="M10430 16403 c-14 -3 -57 -20 -95 -38 -123 -59 -230 -197 -266 -345
-18 -73 -16 -229 4 -312 83 -343 406 -594 705 -548 191 29 340 172 392 376 91
357 -147 768 -497 859 -53 14 -185 18 -243 8z m127 -313 c64 -48 90 -110 114
-275 28 -197 42 -235 142 -381 71 -105 73 -109 56 -99 -44 26 -184 142 -214
178 -41 47 -65 118 -65 191 -1 81 -18 184 -39 224 -11 20 -58 88 -105 150 -47
62 -86 117 -86 121 0 11 141 -67 197 -109z"/>
<path d="M5450 16384 c-67 -13 -156 -50 -198 -81 -147 -111 -210 -252 -199
-448 10 -187 96 -362 240 -491 288 -256 680 -245 860 23 59 87 82 171 81 293
-1 201 -73 360 -230 511 -131 124 -277 189 -439 195 -49 1 -101 0 -115 -2z
m-63 -285 c47 -12 101 -27 119 -35 70 -29 126 -108 181 -254 44 -117 82 -175
166 -257 45 -43 97 -91 115 -105 17 -15 32 -29 32 -32 0 -11 -211 83 -250 112
-70 51 -98 99 -141 241 -28 92 -63 138 -164 219 -121 97 -161 131 -152 131 5
1 47 -8 94 -20z"/>
<path d="M15435 16380 c-191 -38 -333 -178 -374 -368 -83 -388 247 -808 650
-830 158 -8 271 30 371 126 112 107 151 202 151 372 0 102 -3 125 -30 202 -40
117 -83 186 -172 280 -166 175 -393 258 -596 218z m80 -323 c69 -35 115 -98
160 -217 63 -170 130 -262 273 -375 28 -22 51 -43 52 -47 0 -12 -194 72 -245
106 -68 45 -97 91 -141 226 -34 106 -41 118 -93 170 -31 31 -90 81 -131 112
-127 95 -127 99 -7 68 56 -15 116 -34 132 -43z"/>
<path d="M6685 14675 c-508 -95 -927 -526 -1026 -1056 -17 -95 -15 -299 5
-393 73 -338 311 -585 634 -656 106 -24 287 -26 394 -6 240 46 456 164 643
351 109 108 171 191 241 321 215 397 194 860 -54 1160 -97 118 -273 227 -432
269 -92 23 -303 29 -405 10z m511 -362 c-3 -10 -12 -85 -21 -168 -25 -240 -54
-314 -165 -418 -62 -59 -101 -84 -365 -238 -81 -47 -132 -86 -196 -149 -80
-80 -116 -129 -273 -374 -31 -48 -59 -87 -61 -84 -4 3 8 50 75 293 35 124 82
231 129 290 51 63 123 110 295 194 231 113 257 139 419 423 52 90 106 182 120
206 27 42 53 57 43 25z"/>
<path d="M16685 14675 c-436 -82 -818 -418 -973 -855 -90 -257 -90 -534 2
-759 101 -250 332 -440 598 -495 96 -20 282 -21 380 -2 103 20 212 58 316 110
325 164 585 487 679 844 35 132 43 357 18 482 -67 334 -296 581 -615 665 -91
24 -302 29 -405 10z m512 -358 c-3 -7 -10 -65 -17 -128 -26 -252 -54 -342
-137 -430 -65 -70 -125 -113 -278 -199 -271 -152 -347 -222 -503 -460 -130
-200 -145 -221 -148 -218 -4 4 80 320 101 383 10 28 29 73 42 100 67 134 129
183 373 302 216 105 240 131 410 428 57 99 112 192 122 208 20 28 44 38 35 14z"/>
<path d="M450 14564 c-113 -18 -290 -63 -380 -97 l-65 -24 -3 -641 -2 -640 46
14 c74 22 195 42 389 64 483 55 558 87 1131 483 62 42 115 77 119 77 4 0 -11
-21 -32 -47 -22 -27 -95 -122 -163 -213 -143 -190 -307 -361 -395 -412 -134
-76 -213 -94 -492 -108 -320 -16 -405 -33 -533 -108 l-65 -38 -3 -604 c-1
-373 1 -607 7 -613 18 -18 336 -20 466 -3 435 57 835 255 1145 565 319 319
490 705 490 1107 0 207 -39 371 -133 556 -175 345 -508 583 -934 669 -142 29
-451 36 -593 13z"/>
<path d="M10455 14565 c-610 -93 -1164 -475 -1429 -985 -126 -242 -175 -434
-176 -677 0 -211 36 -368 125 -548 179 -358 497 -589 948 -687 88 -19 132 -22
322 -22 187 0 236 3 330 22 549 110 1023 425 1294 861 154 248 227 476 237
741 18 454 -182 838 -561 1082 -147 95 -314 161 -502 199 -138 28 -450 35
-588 14z m1178 -837 c-33 -40 -108 -138 -169 -218 -139 -185 -247 -298 -349
-364 -140 -93 -214 -111 -507 -126 -363 -18 -444 -39 -623 -160 -65 -44 -114
-81 -377 -285 -103 -80 -203 -145 -225 -145 -7 0 5 28 31 68 23 37 69 117 101
177 136 255 224 361 360 432 138 71 251 98 560 133 472 54 566 93 1065 438 96
67 179 121 183 122 5 0 -18 -33 -50 -72z"/>
<path d="M3800 14443 c-44 -7 -154 -45 -205 -71 -299 -149 -474 -520 -373
-790 41 -110 90 -173 182 -234 88 -57 171 -80 286 -81 117 0 199 20 305 73
152 77 260 184 337 333 197 384 -27 783 -435 776 -40 -1 -83 -4 -97 -6z m319
-333 c-53 -193 -72 -210 -359 -325 -93 -38 -98 -41 -217 -163 -68 -68 -123
-122 -123 -119 0 17 95 216 121 252 43 60 87 87 208 126 57 18 123 45 146 60
26 17 83 77 140 148 53 67 100 121 104 121 5 0 -4 -45 -20 -100z"/>
<path d="M13800 14443 c-41 -7 -152 -44 -195 -66 -117 -58 -231 -160 -300
-267 -256 -396 -53 -842 385 -843 116 0 198 20 305 73 246 123 405 363 406
616 1 108 -11 156 -58 247 -61 116 -185 208 -321 236 -51 11 -170 13 -222 4z
m345 -243 c-4 -6 -17 -51 -31 -101 -13 -49 -30 -102 -38 -117 -36 -70 -117
-122 -293 -187 -101 -37 -151 -74 -260 -191 -54 -57 -98 -102 -100 -100 -8 7
90 213 122 256 45 61 74 78 212 124 62 21 129 50 150 65 21 16 68 65 103 111
90 115 121 150 132 150 5 0 6 -5 3 -10z"/>
<path d="M19910 14402 c-453 -203 -843 -620 -988 -1057 -57 -172 -67 -241 -66
-455 0 -178 3 -204 27 -293 50 -186 136 -353 257 -494 117 -137 315 -277 493
-348 94 -38 301 -95 343 -95 l24 0 0 605 0 606 -44 -30 c-23 -16 -106 -78
-182 -137 -301 -233 -360 -274 -394 -274 -6 0 2 19 18 43 16 23 62 103 102
177 164 304 237 390 398 466 l101 49 1 638 c0 350 -1 637 -2 637 -2 0 -41 -17
-88 -38z"/>
<path d="M3408 12185 c-186 -31 -341 -110 -467 -238 -165 -167 -241 -363 -241
-618 0 -746 797 -1378 1506 -1193 203 53 392 193 496 370 182 307 162 704 -52
1060 -265 438 -783 696 -1242 619z m-75 -590 c67 -88 154 -193 193 -233 82
-83 126 -106 329 -172 166 -54 231 -87 294 -150 70 -70 120 -159 202 -361 39
-96 73 -181 77 -189 3 -8 -62 64 -145 161 -225 262 -281 303 -556 416 -383
156 -435 210 -522 553 -25 96 -45 177 -45 179 0 15 68 -65 173 -204z"/>
<path d="M13425 12189 c-187 -27 -370 -120 -498 -254 -94 -97 -152 -201 -199
-355 -29 -95 -36 -326 -13 -438 51 -253 165 -463 355 -652 198 -199 425 -321
690 -371 36 -7 126 -13 200 -12 112 0 152 5 232 26 287 76 496 268 587 542
165 496 -128 1112 -658 1384 -227 117 -472 162 -696 130z m-80 -609 c150 -197
214 -266 283 -303 26 -14 120 -50 208 -80 88 -30 183 -66 211 -81 65 -33 140
-107 188 -187 33 -53 199 -439 192 -445 -1 -2 -50 54 -107 123 -143 172 -252
280 -335 335 -74 49 -76 49 -285 135 -255 104 -360 178 -418 296 -23 47 -122
392 -122 426 0 15 70 -68 185 -219z"/>
<path d="M6770 11453 c-484 -52 -869 -357 -1039 -824 -126 -346 -113 -772 35
-1162 241 -632 792 -1105 1404 -1203 123 -20 330 -19 445 1 483 85 854 439
979 932 41 160 49 247 43 456 -4 158 -10 211 -31 302 -48 205 -102 351 -192
520 -188 355 -532 684 -881 841 -244 110 -533 162 -763 137z m-185 -683 c280
-112 395 -185 480 -304 86 -121 136 -256 200 -537 108 -483 157 -574 542
-1012 68 -78 134 -155 146 -172 l22 -30 -25 18 c-14 9 -101 63 -195 119 -305
183 -419 266 -505 369 -105 126 -142 229 -185 510 -63 416 -76 439 -495 873
-156 163 -230 249 -230 271 0 3 26 -8 58 -23 31 -16 116 -53 187 -82z"/>
<path d="M16730 11449 c-93 -11 -230 -49 -333 -94 -249 -107 -473 -318 -593
-558 -158 -314 -199 -661 -123 -1040 119 -594 554 -1140 1098 -1378 320 -140
690 -170 986 -78 468 144 796 555 866 1084 17 132 6 423 -21 549 -86 400 -276
745 -567 1027 -376 365 -850 541 -1313 488z m-120 -689 c313 -125 428 -215
519 -405 55 -113 85 -211 136 -435 107 -467 165 -574 533 -995 182 -208 197
-228 117 -170 -16 12 -97 62 -180 110 -318 186 -446 287 -535 423 -75 114 -96
190 -155 562 -47 293 -89 358 -511 790 -116 119 -194 211 -194 230 0 5 37 -9
83 -30 45 -21 129 -57 187 -80z"/>
<path d="M940 10564 c-140 -12 -311 -58 -446 -119 -152 -69 -346 -215 -456
-343 l-38 -43 0 -629 0 -628 35 -30 c375 -330 1020 -300 1470 68 154 126 263
262 344 430 77 157 104 273 104 440 0 154 -19 244 -77 367 -90 189 -266 347
-472 422 -137 50 -326 76 -464 65z m582 -610 c-27 -54 -61 -125 -76 -156 -89
-189 -207 -265 -491 -318 -374 -70 -452 -107 -773 -367 -56 -46 -105 -83 -107
-83 -8 0 143 226 217 326 131 177 226 227 478 253 138 15 245 38 300 66 64 32
149 99 281 218 134 120 212 182 217 169 1 -5 -19 -53 -46 -108z"/>
<path d="M10903 10559 c-155 -15 -350 -77 -493 -157 -345 -192 -578 -504 -640
-858 -18 -99 -8 -287 19 -382 83 -287 309 -502 616 -585 386 -104 848 24 1169
324 453 425 511 1046 130 1409 -85 81 -110 98 -211 149 -106 53 -229 88 -354
101 -110 11 -116 11 -236 -1z m579 -681 c-56 -114 -104 -197 -127 -220 -100
-104 -204 -145 -496 -197 -261 -46 -361 -96 -641 -317 -163 -129 -153 -122
-142 -104 91 148 238 353 291 407 110 111 182 138 439 168 238 27 290 53 529
265 156 138 225 193 233 186 2 -3 -37 -87 -86 -188z"/>
<path d="M19946 9983 c-90 -140 -141 -264 -171 -412 -21 -101 -16 -303 9 -396
24 -92 110 -255 166 -316 l49 -54 1 623 c0 342 -2 622 -5 622 -3 0 -25 -30
-49 -67z"/>
<path d="M3330 8634 c-108 -13 -237 -41 -330 -71 -461 -152 -850 -504 -1080
-977 -78 -161 -117 -271 -153 -436 -120 -543 17 -1071 365 -1406 309 -298 747
-403 1199 -289 439 112 848 429 1101 857 353 598 368 1292 37 1788 -221 331
-574 524 -979 535 -69 2 -141 1 -160 -1z m489 -882 c1 -105 -4 -177 -15 -229
-40 -197 -170 -351 -504 -603 -311 -233 -438 -394 -599 -760 -66 -148 -148
-327 -160 -345 -12 -19 -12 -18 -7 5 7 33 32 246 46 390 23 238 74 419 151
537 61 93 148 169 347 300 128 86 202 143 268 208 81 80 97 102 142 195 28 58
92 209 141 335 99 257 134 338 159 375 16 24 17 21 23 -115 4 -77 7 -209 8
-293z"/>
<path d="M13325 8634 c-400 -57 -703 -202 -984 -469 -712 -677 -826 -1770
-250 -2380 350 -369 880 -474 1404 -278 222 83 419 209 609 393 210 202 360
426 469 700 89 223 131 439 131 680 0 307 -79 584 -232 815 -178 270 -451 452
-777 520 -77 16 -308 28 -370 19z m491 -959 c-5 -146 -18 -210 -56 -285 -63
-125 -196 -267 -395 -419 -285 -219 -379 -308 -471 -448 -80 -122 -122 -203
-239 -464 -58 -128 -110 -237 -116 -243 -9 -8 -10 -7 -7 5 3 8 16 105 27 215
44 404 79 554 161 695 55 94 153 180 362 320 245 165 331 250 406 402 30 60
94 213 143 340 96 247 130 327 157 367 16 24 17 18 25 -160 4 -102 6 -248 3
-325z"/>
<path d="M8007 7500 c-148 -18 -293 -78 -412 -167 -93 -71 -119 -98 -184 -196
-103 -156 -142 -289 -144 -492 -2 -253 62 -457 211 -681 181 -269 437 -454
749 -542 91 -25 112 -27 278 -27 175 1 182 2 275 33 135 45 247 112 335 199
325 324 338 855 32 1313 -100 149 -301 330 -477 427 -189 104 -460 159 -663
133z m-182 -505 c137 -30 234 -60 283 -87 93 -53 180 -168 251 -334 81 -188
142 -308 180 -359 62 -81 162 -176 316 -300 80 -63 145 -117 145 -119 0 -5
-321 118 -387 149 -70 32 -163 96 -201 139 -51 59 -81 119 -132 266 -53 151
-93 235 -141 293 -27 33 -181 153 -351 274 -83 60 -128 97 -128 108 0 4 12 4
28 0 15 -4 77 -18 137 -30z"/>
<path d="M18015 7500 c-360 -41 -640 -287 -727 -636 -26 -104 -30 -325 -9
-434 89 -455 463 -866 904 -994 140 -41 207 -49 361 -44 118 5 155 10 226 33
305 99 507 318 576 627 23 99 23 327 0 426 -86 386 -349 723 -701 899 -204
102 -430 147 -630 123z m-190 -506 c203 -43 283 -75 357 -142 60 -54 127 -162
187 -303 147 -343 193 -401 529 -668 56 -45 102 -83 102 -85 0 -2 -71 23 -157
56 -296 111 -410 182 -481 301 -18 30 -57 122 -86 204 -89 251 -114 286 -327
442 -68 50 -161 118 -206 152 -86 62 -104 87 -55 74 15 -4 77 -18 137 -31z"/>
<path d="M460 6410 c-155 -28 -285 -130 -350 -275 -40 -88 -54 -159 -53 -265
3 -313 214 -604 501 -690 98 -30 239 -25 325 11 310 128 401 546 196 897 -51
85 -180 210 -264 254 -120 62 -252 87 -355 68z m38 -276 c116 -65 156 -144
177 -344 8 -83 31 -173 55 -220 11 -21 48 -80 84 -133 37 -53 66 -99 66 -102
0 -9 -160 115 -201 156 -63 63 -79 106 -90 242 -14 179 -19 191 -150 358 -43
56 -79 105 -79 110 0 6 20 -2 45 -16 25 -14 66 -37 93 -51z"/>
<path d="M10475 6414 c-335 -51 -510 -416 -375 -785 50 -138 136 -256 248
-343 121 -93 237 -130 380 -124 86 4 106 8 175 41 178 83 286 268 287 489 0
312 -209 611 -489 699 -61 18 -175 30 -226 23z m15 -277 c123 -67 151 -119
182 -330 26 -178 43 -225 135 -359 40 -60 73 -111 73 -113 0 -3 -45 28 -99 70
-156 117 -179 158 -192 324 -13 171 -20 189 -126 329 -112 146 -121 165 -72
135 19 -11 63 -36 99 -56z"/>
<path d="M5400 6376 c-126 -36 -243 -132 -297 -246 -134 -282 -1 -657 300
-844 277 -173 604 -124 757 113 214 334 -31 852 -460 970 -86 24 -227 27 -300
7z m1 -276 c160 -40 205 -85 288 -289 61 -150 96 -199 218 -306 50 -44 90 -82
88 -84 -4 -4 -140 51 -198 81 -52 26 -115 85 -137 127 -10 20 -28 70 -40 111
-41 140 -62 165 -237 301 -103 80 -118 95 -85 85 9 -3 56 -15 103 -26z"/>
<path d="M15400 6376 c-164 -46 -295 -181 -335 -347 -26 -106 -17 -249 23
-356 171 -461 736 -649 1020 -338 181 197 172 507 -20 767 -93 125 -232 222
-382 265 -89 26 -229 30 -306 9z m-20 -271 c181 -44 226 -86 304 -285 63 -161
115 -230 253 -343 35 -28 61 -52 58 -55 -14 -15 -224 88 -276 135 -48 43 -67
79 -103 193 -45 139 -54 150 -223 282 -107 83 -129 104 -97 95 11 -3 48 -13
84 -22z"/>
<path d="M6660 4674 c-282 -61 -553 -234 -734 -468 -141 -183 -214 -339 -262
-556 -21 -100 -22 -320 -1 -416 94 -419 418 -684 837 -684 363 1 730 197 968
519 189 254 279 555 251 833 -12 129 -31 200 -80 306 -113 246 -321 412 -584
467 -93 19 -305 18 -395 -1z m524 -464 c-32 -273 -56 -356 -132 -441 -60 -67
-130 -118 -292 -209 -80 -46 -170 -100 -200 -120 -111 -76 -213 -200 -369
-445 -40 -64 -75 -114 -77 -113 -2 2 8 46 22 98 95 358 125 431 216 522 46 46
87 71 229 143 285 143 279 137 464 460 90 159 143 241 150 233 2 -2 -3 -59
-11 -128z"/>
<path d="M16660 4674 c-243 -54 -448 -169 -630 -353 -255 -257 -381 -548 -383
-881 -1 -200 37 -343 135 -508 70 -119 228 -253 366 -312 129 -55 183 -64 357
-64 143 0 171 3 257 27 185 50 337 129 482 249 248 206 417 497 466 800 20
124 8 343 -24 451 -86 287 -275 482 -556 573 -75 24 -103 27 -245 30 -114 2
-179 -1 -225 -12z m537 -356 c-3 -13 -13 -86 -22 -163 -17 -156 -36 -239 -66
-302 -44 -92 -146 -178 -339 -288 -187 -106 -225 -132 -302 -204 -83 -78 -152
-169 -277 -366 -40 -64 -75 -114 -78 -112 -2 3 21 96 52 207 99 364 138 416
418 556 270 135 278 143 464 464 108 186 135 230 147 230 4 0 6 -10 3 -22z"/>
<path d="M545 4579 c-133 -13 -284 -45 -422 -91 l-123 -40 0 -640 0 -640 28 7
c105 27 221 47 377 65 517 59 577 84 1158 484 70 48 127 84 127 80 0 -4 -19
-30 -43 -58 -24 -28 -98 -123 -164 -211 -222 -294 -347 -407 -519 -464 -88
-29 -165 -39 -394 -50 -290 -15 -368 -31 -497 -104 l-73 -41 0 -608 0 -608 27
-7 c55 -15 403 -8 503 10 793 143 1402 689 1556 1397 15 66 19 126 19 270 0
170 -3 194 -29 295 -119 466 -488 807 -996 921 -180 40 -348 51 -535 33z"/>
<path d="M10545 4579 c-736 -70 -1404 -579 -1625 -1239 -65 -193 -87 -450 -56
-638 44 -262 162 -488 347 -667 403 -389 1033 -499 1649 -288 657 226 1152
784 1240 1398 14 103 12 290 -5 387 -30 171 -108 362 -203 498 -62 88 -211
234 -302 296 -206 141 -451 227 -729 254 -117 11 -186 11 -316 -1z m1139 -781
c-5 -7 -40 -53 -79 -103 -39 -49 -103 -133 -143 -186 -199 -266 -331 -381
-503 -439 -83 -28 -162 -38 -389 -49 -217 -11 -320 -26 -410 -60 -78 -29 -204
-114 -440 -296 -212 -164 -314 -235 -336 -235 -6 0 14 44 45 98 32 53 84 144
116 202 31 58 73 129 92 157 143 216 315 299 723 347 561 67 628 93 1115 430
116 80 211 145 213 146 2 0 0 -6 -4 -12z"/>
<path d="M3747 4435 c-164 -41 -336 -165 -434 -312 -166 -248 -159 -524 17
-707 96 -100 211 -146 366 -146 255 0 517 166 637 405 72 145 92 326 48 449
-52 145 -152 248 -289 299 -74 27 -259 33 -345 12z m398 -232 c-4 -10 -18 -57
-31 -106 -29 -105 -42 -133 -86 -173 -48 -44 -78 -61 -181 -101 -51 -19 -108
-42 -127 -51 -59 -27 -152 -106 -224 -191 -38 -45 -70 -80 -72 -78 -4 4 54
144 85 205 29 58 77 110 122 132 20 11 82 34 136 51 137 44 153 57 274 209 32
41 67 85 76 97 22 27 38 30 28 6z"/>
<path d="M13746 4434 c-134 -32 -293 -133 -385 -244 -114 -137 -166 -275 -165
-440 1 -153 41 -249 145 -349 241 -232 692 -147 931 177 139 188 170 442 76
626 -27 52 -109 138 -167 175 -106 67 -289 90 -435 55z m370 -328 c-48 -179
-72 -202 -341 -312 -113 -46 -176 -94 -272 -206 -42 -48 -78 -86 -80 -84 -4 4
54 141 86 204 29 58 77 110 122 132 20 11 81 34 135 51 54 17 113 41 130 53
38 26 145 149 229 263 19 25 16 -6 -9 -101z"/>
<path d="M19915 4407 c-334 -153 -626 -403 -818 -698 -101 -156 -185 -359
-224 -539 -14 -66 -18 -128 -17 -280 0 -178 3 -204 27 -292 59 -222 154 -387
316 -549 153 -154 316 -255 524 -324 102 -34 264 -71 273 -63 2 3 3 276 2 608
l-3 603 -145 -109 c-80 -60 -192 -146 -250 -190 -118 -91 -198 -144 -217 -144
-8 0 0 20 21 53 18 28 54 93 81 142 121 226 195 336 275 408 49 44 196 127
226 127 12 0 14 102 14 640 0 352 -3 640 -7 640 -5 0 -40 -15 -78 -33z"/>
<path d="M3364 2181 c-331 -78 -563 -305 -645 -631 -9 -36 -14 -112 -14 -220
0 -140 4 -178 23 -250 123 -453 477 -808 934 -936 127 -36 352 -45 478 -19
186 38 311 104 441 234 120 120 190 248 226 415 22 96 21 307 -1 404 -107 478
-468 853 -951 989 -126 35 -370 42 -491 14z m-21 -596 c147 -194 223 -273 302
-312 33 -17 131 -54 217 -82 285 -95 346 -157 484 -496 34 -83 67 -161 73
-174 29 -54 -4 -22 -122 116 -235 277 -291 320 -572 433 -280 113 -387 188
-446 314 -22 47 -118 382 -119 415 0 17 80 -78 183 -214z"/>
<path d="M13381 2185 c-274 -62 -478 -214 -590 -440 -71 -144 -86 -215 -86
-410 0 -146 3 -182 23 -254 88 -323 286 -593 567 -773 307 -198 650 -250 975
-149 152 48 349 205 432 347 164 279 165 628 3 959 -169 346 -481 602 -855
702 -120 32 -365 42 -469 18z m-42 -595 c213 -283 236 -301 517 -398 101 -34
192 -73 226 -94 60 -39 129 -118 174 -201 27 -50 175 -407 168 -407 -2 0 -59
66 -127 148 -215 256 -306 326 -551 423 -397 158 -458 221 -540 554 -20 83
-39 159 -43 170 -11 38 56 -35 176 -195z"/>
<path d="M6681 1445 c-182 -32 -380 -117 -528 -227 -227 -167 -406 -456 -472
-761 -26 -120 -45 -333 -36 -404 l6 -53 681 0 681 0 -7 33 c-12 59 -72 171
-133 247 -34 41 -150 167 -258 280 -193 200 -283 305 -272 316 3 3 31 -8 63
-24 33 -16 122 -55 199 -86 224 -91 309 -140 395 -226 108 -107 179 -255 240
-497 l11 -43 669 0 c660 0 670 0 670 20 0 36 -77 255 -127 361 -253 534 -712
917 -1253 1046 -135 32 -398 41 -529 18z"/>
<path d="M16681 1445 c-250 -44 -487 -167 -658 -341 -172 -176 -292 -405 -347
-664 -22 -102 -41 -334 -32 -392 l7 -48 680 0 681 0 -7 33 c-13 58 -61 151
-114 222 -59 77 -84 104 -325 354 -156 163 -234 256 -224 267 3 2 47 -15 99
-39 52 -25 155 -70 229 -101 182 -75 251 -117 336 -202 102 -101 171 -247 234
-491 l11 -43 669 0 c660 0 670 0 670 20 0 41 -82 266 -139 383 -261 528 -708
897 -1241 1024 -135 32 -398 41 -529 18z"/>
<path d="M900 564 c-201 -26 -421 -107 -585 -217 -167 -112 -315 -261 -315
-317 l0 -30 734 0 733 0 44 35 c57 45 74 45 48 0 l-21 -35 186 0 186 0 -11 27
c-83 218 -278 401 -516 484 -32 11 -89 27 -128 35 -69 16 -288 26 -355 18z"/>
<path d="M10905 564 c-183 -27 -316 -68 -467 -146 -105 -54 -228 -139 -310
-216 -43 -40 -144 -158 -162 -189 -6 -10 146 -13 747 -13 l754 0 47 36 c25 21
49 34 52 31 3 -3 -2 -19 -11 -36 l-16 -31 181 0 c207 0 198 -5 149 93 -112
223 -320 381 -591 447 -81 20 -302 34 -373 24z"/>
<path d="M19977 30 c-16 -22 -16 -25 -1 -28 21 -5 26 2 22 30 l-3 23 -18 -25z"/>
</g>
</svg>
